# xmcd
#
# Track frame offsets: 
#        150
#        27333
#        46845
#        63505
#        90318
#        109655
#        131700
#        150128
#        168018
#        190423
#        200765
#        222408
#        231728
#        242245
#        256512
#        274745
#        281676
#        294626
#        303333
#        312453
#        320665
#
# Disc length: 4353 seconds
#
# Revision: 16
# Processed by: cddbd v1.5.2PL0 Copyright (c) Steve Scherf et al.
# Submitted via: ExactAudioCopyFreeDBPlugin 1.0
#
DISCID=3510ff15
DTITLE=Michael Jackson - Thriller (Special Edition)
DYEAR=2001
DGENRE=Pop
TTITLE0=Wanna Be Startin' Somethin'
TTITLE1=Baby Be Mine
TTITLE2=The Girl Is Mine (with Paul McCartney)
TTITLE3=Thriller
TTITLE4=Beat It
TTITLE5=Billie Jean
TTITLE6=Human Nature
TTITLE7=P. Y. T. (Pretty Young Thing)
TTITLE8=The Lady In My Life
TTITLE9=Interview With Quincy Jones - About "Someone In The Dark" (Bon
TTITLE9=us Track)
TTITLE10=Someone In The Dark (Bonus Track)
TTITLE11=Interview With Quincy Jones - About Being A Producer (Bonus T
TTITLE11=rack)
TTITLE12=Billie Jean (Home Demo From 1981) (Bonus Track)
TTITLE13=Interview With Quincy Jones - About Thriller's Songs (Bonus T
TTITLE13=rack)
TTITLE14=Interview With Rod Temperton - About Vincent Price (Bonus Tra
TTITLE14=ck)
TTITLE15=Interview With Quincy Jones - About Vincent Price (Bonus Trac
TTITLE15=k)
TTITLE16=Michael Jackson and Vincent Price - Voice-Over Session From 'Th
TTITLE16=riller' (Bonus Track)
TTITLE17=Interview With Rod Temperton - About "Carousel" (Bonus Track)
TTITLE18=Interview With Quincy Jones - About "Carousel" (Bonus Track)
TTITLE19=Carousel (Bonus Track)
TTITLE20=Interview With Quincy Jones - Final Thoughts On "Thriller" (B
TTITLE20=onus Track)
EXTD=YEAR: 1982
EXTT0=
EXTT1=
EXTT2=
EXTT3=
EXTT4=
EXTT5=
EXTT6=
EXTT7=
EXTT8=
EXTT9=
EXTT10=
EXTT11=
EXTT12=
EXTT13=
EXTT14=
EXTT15=
EXTT16=
EXTT17=
EXTT18=
EXTT19=
EXTT20=
PLAYORDER=
